<?xml version="1.0" encoding="UTF-8" standalone="no"?>
<!-- Created with Inkscape (http://www.inkscape.org/) -->

<svg
   width="204.96681mm"
   height="203.65041mm"
   viewBox="0 0 204.96681 203.65041"
   version="1.1"
   id="svg1"
   xmlns="http://www.w3.org/2000/svg"
   xmlns:svg="http://www.w3.org/2000/svg">
  <defs
     id="defs1" />
  <g
     id="layer1"
     transform="translate(-3.375,-43.417969)">
    <path
       id="rect5"
       style="fill:#0086db;stroke-width:3.43479"
       d="m 66.190533,85.447281 h 79.869287 c 10.30102,0 18.5939,8.292882 18.5939,18.593909 v 79.86928 c 0,10.30103 -8.29288,18.59391 -18.5939,18.59391 H 66.190533 c -10.301024,0 -18.593907,-8.29288 -18.593907,-18.59391 v -79.86928 c 0,-10.301027 8.292883,-18.593909 18.593907,-18.593909 z" />
    <path
       style="fill:#0086db"
       d="m 58.767578,73.042969 c -13.30888,0 -24.085937,10.777057 -24.085937,24.085937 V 191.8457 c 0,13.30888 10.777057,24.08594 24.085937,24.08594 h 94.716792 c 13.30889,0 24.08594,-10.77706 24.08594,-24.08594 V 97.128906 c 0,-13.30888 -10.77705,-24.085937 -24.08594,-24.085937 z m 0,4.072265 h 94.716792 c 11.12271,0 20.01368,8.890965 20.01368,20.013672 V 191.8457 c 0,11.12271 -8.89097,20.01367 -20.01368,20.01367 H 58.767578 c -11.122707,0 -20.013672,-8.89096 -20.013672,-20.01367 V 97.128906 c 0,-11.122707 8.890965,-20.013672 20.013672,-20.013672 z"
       id="rect5-5" />
    <path
       style="fill:#0086db"
       d="m 61.914062,48.945312 c -1.021354,0 -1.902343,0.88099 -1.902343,1.902344 v 23.876953 c 0,1.021355 0.880989,1.900391 1.902343,1.900391 h 0.867188 c 1.021354,0 1.902344,-0.879036 1.902344,-1.900391 V 50.847656 c 0,-1.021354 -0.88099,-1.902344 -1.902344,-1.902344 z"
       id="rect14" />
    <path
       style="fill:#0086db"
       d="m 79.519531,45.210937 c -1.168753,0 -2.175781,1.007029 -2.175781,2.175782 v 26.464843 c 0,1.168753 1.007028,2.175782 2.175781,2.175782 h 0.322266 c 1.168753,0 2.175781,-1.007029 2.175781,-2.175782 V 47.386719 c 0,-1.168753 -1.007028,-2.175782 -2.175781,-2.175782 z"
       id="rect15" />
    <path
       style="fill:#0086db"
       d="m 99.886719,47.75 c -1.194949,0 -2.22461,1.02966 -2.22461,2.224609 v 24.126953 c 0,1.194949 1.029661,2.22461 2.22461,2.22461 h 0.224611 c 1.19495,0 2.22461,-1.029661 2.22461,-2.22461 V 49.974609 c 0,-1.194949 -1.02966,-2.224609 -2.22461,-2.224609 z"
       id="rect16" />
    <path
       style="fill:#0086db"
       d="m 119.28516,47.302734 c -1.18147,0 -2.19922,1.017752 -2.19922,2.199219 v 25.820313 c 0,1.181467 1.01775,2.199218 2.19922,2.199218 h 0.27539 c 1.18146,0 2.19922,-1.017751 2.19922,-2.199218 V 49.501953 c 0,-1.181467 -1.01776,-2.199219 -2.19922,-2.199219 z"
       id="rect17" />
    <path
       style="fill:#0086db"
       d="m 138.11523,43.417969 c -1.18436,0 -2.20312,1.020718 -2.20312,2.205078 v 28.199219 c 0,1.18436 1.01876,2.205078 2.20312,2.205078 h 0.26368 c 1.18436,0 2.20507,-1.020718 2.20507,-2.205078 V 45.623047 c 0,-1.18436 -1.02071,-2.205078 -2.20507,-2.205078 z"
       id="rect18" />
    <path
       style="fill:#0086db"
       d="m 152.71289,46.853516 c -1.15958,0 -2.16016,1.00058 -2.16016,2.160156 v 25.154297 c 0,1.159576 1.00058,2.158203 2.16016,2.158203 h 0.35156 c 1.15958,0 2.16016,-0.998627 2.16016,-2.158203 V 49.013672 c 0,-1.159576 -1.00058,-2.160156 -2.16016,-2.160156 z"
       id="rect19" />
    <path
       style="fill:#0086db"
       d="m 101.09375,-202.8125 c -1.02135,0 -1.900391,0.87904 -1.900391,1.90039 v 23.87695 c 0,1.02136 0.879041,1.90235 1.900391,1.90235 h 0.86914 c 1.02135,0 1.90039,-0.88099 1.90039,-1.90235 v -23.87695 c 0,-1.02135 -0.87904,-1.90039 -1.90039,-1.90039 z"
       id="rect14-7"
       transform="rotate(90)" />
    <path
       style="fill:#0086db"
       d="m 118.70117,-206.54883 c -1.16875,0 -2.17578,1.00703 -2.17578,2.17578 v 26.4668 c 0,1.16875 1.00703,2.17578 2.17578,2.17578 h 0.32031 c 1.16876,0 2.17579,-1.00703 2.17579,-2.17578 v -26.4668 c 0,-1.16875 -1.00703,-2.17578 -2.17579,-2.17578 z"
       id="rect15-4"
       transform="rotate(90)" />
    <path
       style="fill:#0086db"
       d="m 139.06836,-204.00781 c -1.19495,0 -2.22461,1.0277 -2.22461,2.22265 v 24.12891 c 0,1.19495 1.02966,2.22461 2.22461,2.22461 h 0.22461 c 1.19495,0 2.22461,-1.02966 2.22461,-2.22461 v -24.12891 c 0,-1.19495 -1.02966,-2.22265 -2.22461,-2.22265 z"
       id="rect16-2"
       transform="rotate(90)" />
    <path
       style="fill:#0086db"
       d="m 158.4668,-204.45703 c -1.18147,0 -2.19922,1.01775 -2.19922,2.19922 v 25.82226 c 0,1.18147 1.01775,2.19922 2.19922,2.19922 h 0.27343 c 1.18147,0 2.19922,-1.01775 2.19922,-2.19922 v -25.82226 c 0,-1.18147 -1.01775,-2.19922 -2.19922,-2.19922 z"
       id="rect17-7"
       transform="rotate(90)" />
    <path
       style="fill:#0086db"
       d="m 177.29687,-208.3418 c -1.18435,0 -2.20507,1.02072 -2.20507,2.20508 v 28.20117 c 0,1.18436 1.02072,2.20508 2.20507,2.20508 h 0.26368 c 1.18436,0 2.20507,-1.02072 2.20507,-2.20508 v -28.20117 c 0,-1.18436 -1.02071,-2.20508 -2.20507,-2.20508 z"
       id="rect18-7"
       transform="rotate(90)" />
    <path
       style="fill:#0086db"
       d="m 191.89258,-204.9043 c -1.15958,0 -2.15821,0.99863 -2.15821,2.15821 v 25.15429 c 0,1.15958 0.99863,2.16016 2.15821,2.16016 h 0.35351 c 1.15958,0 2.15821,-1.00058 2.15821,-2.16016 v -25.15429 c 0,-1.15958 -0.99863,-2.15821 -2.15821,-2.15821 z"
       id="rect19-9"
       transform="rotate(90)" />
    <path
       style="fill:#0086db"
       d="m -153.32422,-241.53906 c -1.02135,0 -1.90234,0.87903 -1.90234,1.90039 v 23.87695 c 0,1.02136 0.88099,1.90234 1.90234,1.90235 h 0.86719 c 1.02135,-10e-6 1.90234,-0.88099 1.90234,-1.90235 v -23.87695 c 0,-1.02136 -0.88099,-1.90039 -1.90234,-1.90039 z"
       id="rect14-7-8"
       transform="scale(-1)" />
    <path
       style="fill:#0086db"
       d="m -135.71875,-245.27539 c -1.16875,0 -2.17578,1.00703 -2.17578,2.17578 v 26.4668 c 0,1.16875 1.00703,2.17578 2.17578,2.17578 h 0.32227 c 1.16875,0 2.17578,-1.00703 2.17578,-2.17578 v -26.4668 c 0,-1.16875 -1.00703,-2.17578 -2.17578,-2.17578 z"
       id="rect15-4-6"
       transform="scale(-1)" />
    <path
       style="fill:#0086db"
       d="m -115.35156,-242.73437 c -1.19495,-10e-6 -2.22461,1.02966 -2.22461,2.2246 v 24.12696 c 0,1.19495 1.02966,2.22461 2.22461,2.22461 h 0.22461 c 1.19495,0 2.22461,-1.02966 2.22461,-2.22461 v -24.12696 c 0,-1.19494 -1.02966,-2.22461 -2.22461,-2.2246 z"
       id="rect16-2-5"
       transform="scale(-1)" />
    <path
       style="fill:#0086db"
       d="m -95.953125,-243.18359 c -1.181467,0 -2.199219,1.01775 -2.199219,2.19922 v 25.82226 c 0,1.18147 1.017752,2.19922 2.199219,2.19922 h 0.275391 c 1.181467,0 2.199218,-1.01775 2.199218,-2.19922 v -25.82226 c 0,-1.18147 -1.017751,-2.19922 -2.199218,-2.19922 z"
       id="rect17-7-0"
       transform="scale(-1)" />
    <path
       style="fill:#0086db"
       d="m -77.123047,-247.06836 c -1.18436,0 -2.203125,1.02072 -2.203125,2.20508 v 28.20117 c 0,1.18436 1.018765,2.20508 2.203125,2.20508 h 0.265625 c 1.18436,0 2.203125,-1.02072 2.203125,-2.20508 v -28.20117 c 0,-1.18436 -1.018765,-2.20508 -2.203125,-2.20508 z"
       id="rect18-7-2"
       transform="scale(-1)" />
    <path
       style="fill:#0086db"
       d="m -62.525391,-243.63086 c -1.159576,0 -2.160156,0.99863 -2.160156,2.1582 v 25.1543 c 0,1.15958 1.00058,2.16016 2.160156,2.16016 h 0.353516 c 1.159576,0 2.158203,-1.00058 2.158203,-2.16016 v -25.1543 c 0,-1.15957 -0.998627,-2.1582 -2.158203,-2.1582 z"
       id="rect19-9-8"
       transform="scale(-1)" />
    <path
       style="fill:#0086db"
       d="m -192.50195,8.9042969 c -1.02136,0 -1.90235,0.8790364 -1.90235,1.9003911 v 23.876953 c 0,1.021354 0.88099,1.902343 1.90235,1.902343 h 0.86914 c 1.02135,0 1.90039,-0.880989 1.90039,-1.902343 V 10.804688 c 0,-1.0213547 -0.87904,-1.9003911 -1.90039,-1.9003911 z"
       id="rect14-7-4"
       transform="rotate(-90)" />
    <path
       style="fill:#0086db"
       d="m -174.89648,5.1679687 c -1.16876,0 -2.17579,1.0070284 -2.17579,2.1757813 v 26.466797 c 0,1.168753 1.00703,2.175781 2.17579,2.175781 h 0.32226 c 1.16875,0 2.17578,-1.007028 2.17578,-2.175781 V 7.34375 c 0,-1.1687529 -1.00703,-2.1757813 -2.17578,-2.1757813 z"
       id="rect15-4-8"
       transform="rotate(-90)" />
    <path
       style="fill:#0086db"
       d="m -154.5293,7.7089844 c -1.19495,0 -2.22265,1.0277073 -2.22265,2.2226562 V 34.060547 c 0,1.194949 1.0277,2.224609 2.22265,2.224609 h 0.22461 c 1.19495,0 2.22461,-1.02966 2.22461,-2.224609 V 9.9316406 c 0,-1.1949489 -1.02966,-2.2226562 -2.22461,-2.2226562 z"
       id="rect16-2-6"
       transform="rotate(-90)" />
    <path
       style="fill:#0086db"
       d="m -135.13086,7.2597656 c -1.18147,0 -2.19922,1.0177516 -2.19922,2.1992188 V 35.28125 c 0,1.181467 1.01775,2.199219 2.19922,2.199219 h 0.27539 c 1.18147,0 2.19922,-1.017752 2.19922,-2.199219 V 9.4589844 c 0,-1.1814672 -1.01775,-2.1992188 -2.19922,-2.1992188 z"
       id="rect17-7-5"
       transform="rotate(-90)" />
    <path
       style="fill:#0086db"
       d="m -116.29883,3.375 c -1.18436,0 -2.20508,1.0207182 -2.20508,2.2050781 V 33.78125 c 0,1.18436 1.02072,2.205078 2.20508,2.205078 h 0.26367 c 1.18436,0 2.20313,-1.020718 2.20313,-2.205078 V 5.5800781 c 0,-1.1843599 -1.01877,-2.2050781 -2.20313,-2.2050781 z"
       id="rect18-7-0"
       transform="rotate(-90)" />
    <path
       style="fill:#0086db"
       d="m -101.70313,6.8125 c -1.15957,0 -2.16015,0.998627 -2.16015,2.1582031 V 34.125 c 0,1.159576 1.00058,2.160156 2.16015,2.160156 h 0.35352 c 1.15958,0 2.158204,-1.00058 2.158204,-2.160156 V 8.9707031 c 0,-1.1595761 -0.998624,-2.1582031 -2.158204,-2.1582031 z"
       id="rect19-9-9"
       transform="rotate(-90)" />
  </g>
</svg>
